# xmcd
#
# Track frame offsets:
#	150
#	20462
#	40245
#	59845
#	90447
#	103522
#	113390
#	132205
#	150535
#	163962
#
# Disc length: 2547 seconds
#
# Revision: 1
# Processed by: cddbd v1.5.1PL0 Copyright (c) Steve Scherf et al.
# Submitted via: audiograbber 1.83.01
#
DISCID=7809f10a
DTITLE=Various Artist - American Folk Blues Festival 1964
DYEAR=2002
DGENRE=Blues
TTITLE0=Sonny Boy Williamson, Hubert Sumlin - I'm Trying To Make London My Home
TTITLE1=Sonny Boy Williamson, Hubert Sumlin, Willie Dixon, Clifton James, Sunny
TTITLE1=land Slim - Dissatisfied
TTITLE2=Sunnyland Slim, Hubert Sumlin, Willie Dixon, Clifton James  - Everytime
TTITLE2=I Get To Drinkin'
TTITLE3=Sam " Lightnin' " Hopkins Slim - Ain't It Pity
TTITLE4=Sam " Lightnin' " Hopkins Slim - Baby Please Don't Go
TTITLE5=Sleepy John Estes, Hammie Nixon - I'm A Tearing Little Daddy
TTITLE6=John Henry Barbee - Cotton Pickin' Blues
TTITLE7=Hubert Sumlin, Willie Dixon, Clifton James, Sunnyland Slim - No Title B
TTITLE7=oogie
TTITLE8=Sugar Pie Desanto, Hubert Sumlin, Willie Dixon, Clifton James, Sunnylan
TTITLE8=d Slim - Slip In Mules
TTITLE9=Howlin' Wolf, Hubert Sumlin, Willie Dixon, Clifton James, Sunnyland Sli
TTITLE9=m - Dust My Broom
EXTD=
EXTT0=
EXTT1=
EXTT2=
EXTT3=
EXTT4=
EXTT5=
EXTT6=
EXTT7=
EXTT8=
EXTT9=
PLAYORDER=
